<svg width="50" height="50" xmlns="http://www.w3.org/2000/svg" xmlns:svg="http://www.w3.org/2000/svg">
 <g class="layer">
  <rect fill="#ffffff" height="50" id="svg_1" rx="22" transform="matrix(1 0 0 1 0 0)" width="50" x="0.25"/>
  <path d="m42.23,13.75l-33.73,0a2.77,2.49 0 0 0 -2.77,2.49l0,18.53a2.77,2.49 0 0 0 2.77,2.49l33.73,0a2.77,2.49 0 0 0 2.77,-2.49l0,-18.53a2.77,2.49 0 0 0 -2.77,-2.49m-16.04,9.07c3.15,0.88 3.15,5.52 0,6.41l0,-6.41zm-18.81,-0.26c1.9,0.06 2.41,-0.14 2.41,0.19l0,5.5a0.21,0.19 0 0 1 -0.21,0.19l-2.2,0l0,-5.87l0,-0.01zm17.18,6.67c-3.15,-0.88 -3.15,-5.52 0,-6.41l0,6.41zm0,-7.93c-5.31,0.91 -5.31,8.54 0,9.45l0,5.03l-16.04,0c-0.63,0 -1.13,-0.45 -1.13,-1.02l0,-4.87l2.2,0a1.85,1.66 0 0 0 1.85,-1.66l0,-5.5a1.85,1.66 0 0 0 -1.85,-1.66l-2.2,0l0,-4.87c0,-0.55 0.51,-1.02 1.13,-1.02l16.04,0l0,6.08l0,0.03zm18.81,7.13l-2.2,0a0.21,0.19 0 0 1 -0.21,-0.19l0,-5.5c0,-0.12 0.09,-0.19 0.21,-0.19l2.2,0l0,5.87l0,0.01zm0,-7.34l-2.2,0a1.85,1.66 0 0 0 -1.85,1.66l0,5.5a1.85,1.66 0 0 0 1.85,1.66l2.2,0l0,4.87c0,0.55 -0.51,1.02 -1.13,1.02l-16.04,0l0,-5.03c5.31,-0.91 5.31,-8.54 0,-9.45l0,-6.08l16.04,0c0.63,0 1.13,0.45 1.13,1.02l0,4.87l0,-0.03z" fill="#3f7f00" id="svg_2"/>
  <text fill="#000000" font-family="Serif" font-size="24" id="svg_3" stroke-width="0" text-anchor="middle" transform="matrix(1 0 0 1 0 0) matrix(0.885362 0 0 0.349859 5.32186 20.862)" x="51.75" xml:space="preserve" y="27"/>
  <text fill="#000000" font-family="Serif" font-size="24" id="svg_5" stroke-width="0" text-anchor="middle" transform="matrix(0.511505 0 0 0.555233 25.7845 5.63961)" x="107.73" xml:space="preserve" y="46.16"/>
 </g>
</svg>